<?xml version="1.0" encoding="utf-8"?>
<!-- Generator: Adobe Illustrator 24.1.2, SVG Export Plug-In . SVG Version: 6.00 Build 0)  -->
<svg class="st0" version="1.1" id="Calque_1" xmlns="http://www.w3.org/2000/svg" xmlns:xlink="http://www.w3.org/1999/xlink" x="0px" y="0px"
	 viewBox="0 0 595.28 841.89" xml:space="preserve">
<g>
	<path d="M-307.35,507.89l-57.53,2.74c-7.96,0.38-13.35,0.07-16.17-0.94c-2.82-1-4.29-2.81-4.41-5.41l-7.32-153.81
		c-0.2-4.22,1.44-7.36,4.93-9.4c3.48-2.04,9.62-3.27,18.39-3.68l54.85-2.61c31.2-1.48,53.02,3.63,65.47,15.33
		c12.44,11.71,19.44,33.73,20.98,66.06c1.54,32.34-3.56,55.35-15.28,69.01C-255.17,498.86-276.48,506.43-307.35,507.89z
		 M-315.8,371.24c-3.9,0.19-6.49,0.64-7.75,1.34l4.69,98.48l9.31,0.53c4.87-0.23,8.38-4.31,10.53-12.23
		c2.15-7.92,2.77-21.47,1.85-40.64c-0.91-19.17-2.83-31.95-5.73-38.33C-305.82,374.02-310.12,370.97-315.8,371.24z"/>
	<path d="M-93.02,501.7l-103.39-3.98c-7.97-0.31-13.31-1.08-16.03-2.33c-2.72-1.24-4.03-3.09-3.94-5.53l5.94-154.36
		c0.16-4.23,2.19-7.16,6.08-8.8c3.89-1.64,10.79-2.27,20.71-1.89l98.03,3.77c3.41,0.13,4.9,5.85,4.47,17.14
		c-0.44,11.3-1.5,19.89-3.19,25.76c-1.69,5.88-3.76,8.77-6.2,8.68c-10.57-0.41-28.33-2.15-53.28-5.23l-0.63,16.34
		c24.09-0.05,39.8,0.07,47.12,0.35c4.39,0.17,6.39,5.38,5.99,15.62c-0.39,10.24-1.55,17.98-3.46,23.19
		c-1.91,5.22-4.33,7.77-7.25,7.66l-44.1-2.67l-0.6,15.61c28.37-1.02,47.92-1.33,58.65-0.92c3.41,0.13,4.9,5.89,4.46,17.27
		c-0.44,11.38-1.5,19.97-3.19,25.76C-88.52,498.94-90.58,501.8-93.02,501.7z"/>
	<path d="M-13.88,512.66c-10.41,1.72-20.33,2.85-29.75,3.37c-9.42,0.53-15.55,0.3-18.37-0.68
		c-2.83-0.98-4.31-2.69-4.44-5.13l-8.63-154.48c-0.24-4.22,1.71-7.34,5.83-9.37c4.12-2.02,12.03-3.36,23.73-4.01l90.4-5.05
		c3.41-0.19,5.46,5.85,6.15,18.11c0.69,12.27,0.43,21.65-0.75,28.15c-1.19,6.51-2.99,9.82-5.43,9.96l-49.6,0.33l0.93,16.57
		c21.55-2.18,35.98-3.48,43.29-3.89c2.44-0.14,4.17,1.07,5.21,3.62c1.04,2.55,1.76,7.52,2.18,14.91c0.41,7.39-0.01,14.51-1.25,21.33
		c-1.25,6.83-3.33,10.33-6.26,10.49l-40.53,0.8l2.72,48.73C1.67,508.86-3.47,510.94-13.88,512.66z"/>
	<path d="M119.25,498.38c-9.93,1.06-19.89,1.59-29.89,1.59c-10.01,0-16.39-0.45-19.16-1.34
		c-2.77-0.89-4.15-2.4-4.15-4.51V342.32c0-3.58,4.72-7.12,14.15-10.62c9.43-3.5,20.01-5.25,31.72-5.25c10.41,0,17.24,2.2,20.5,6.59
		c1.14,1.63,1.71,3.26,1.71,4.88v156.18C134.13,495.9,129.17,497.32,119.25,498.38z"/>
	<path d="M198.38,509.97c-10.06,0.78-20.05,0.9-29.96,0.38c-9.91-0.52-16.22-1.42-18.92-2.7
		c-2.7-1.28-3.99-3.14-3.86-5.58l7.85-149.63c0.21-4.06,5.08-7.55,14.6-10.47c9.52-2.92,20.21-4.07,32.07-3.45
		c4.22,0.22,7.38,0.55,9.48,0.99c5.48,1.1,9.19,4.8,11.15,11.09l20.1,64.1l0.98,0.05l3.02-57.51c0.21-4.06,5.04-7.55,14.48-10.48
		s20.09-4.08,31.95-3.46c10.24,0.54,16.63,2.83,19.19,6.87c1.81,2.87,2.65,5.43,2.53,7.71l-8,152.56c-0.11,2.11-5.2,3.56-15.25,4.33
		c-10.06,0.78-21.06,0.85-33,0.22c-11.94-0.63-18.4-2.51-19.38-5.66l-19.52-61.14l-1.22-0.06l-3.02,57.51
		C213.52,507.75,208.44,509.2,198.38,509.97z"/>
	<path d="M385.34,497.09c-9.85,1.65-19.76,2.76-29.75,3.35c-9.99,0.59-16.39,0.52-19.2-0.21
		c-2.81-0.73-4.28-2.15-4.41-4.26L323,344.46c-0.21-3.57,4.29-7.38,13.5-11.44c9.21-4.05,19.66-6.42,31.36-7.12
		c10.39-0.62,17.34,1.17,20.85,5.36c1.23,1.56,1.9,3.15,2,4.77l9.25,155.91C400.06,493.74,395.19,495.45,385.34,497.09z"/>
	<path d="M500.32,505.23c-9.94,1.55-19.91,2.57-29.9,3.07c-9.99,0.5-16.35,0.36-19.08-0.4
		c-2.73-0.76-4.14-2.19-4.24-4.31l-5.19-104.81l-33.88,1.68c-1.79,0.09-3.44-2.11-4.97-6.6c-1.53-4.48-2.51-11.24-2.96-20.26
		c-0.45-9.02,0.13-17.19,1.72-24.52c1.59-7.33,4.01-11.07,7.26-11.23l131.86-6.53c2.44-0.12,4.21,2.07,5.33,6.58
		c1.12,4.51,1.89,11.06,2.32,19.68c0.43,8.62-0.07,16.78-1.47,24.51c-1.41,7.73-3.66,11.66-6.75,11.82l-30.47,1.51l5.19,104.81
		C515.19,502.01,510.26,503.68,500.32,505.23z"/>
	<path d="M605.31,506.37c-9.98,0.27-19.95,0.01-29.93-0.78c-9.97-0.79-16.31-1.74-18.99-2.85
		c-2.69-1.11-3.95-2.72-3.78-4.83L564.6,346.6c0.28-3.57,5.26-6.72,14.95-9.47c9.68-2.74,20.36-3.65,32.04-2.73
		c10.38,0.82,17.02,3.55,19.91,8.19c1,1.71,1.45,3.38,1.32,5l-12.33,155.69C620.35,505.07,615.29,506.1,605.31,506.37z"/>
	<path d="M729.81,515.83c-13.51,0-25.1-1.26-34.78-3.78c-9.68-2.52-18.59-7.04-26.72-13.55
		c-16.43-12.85-24.65-37.5-24.65-73.94c0-15.29,2.24-28.63,6.71-40.02c4.47-11.39,10.7-20.42,18.67-27.09
		c15.62-13.01,35.87-19.52,60.77-19.52c12.85,0,24.04,1.14,33.55,3.42c9.52,2.28,18.51,6.43,26.97,12.44
		c17.08,12.37,25.62,35.96,25.62,70.77c0,31.24-7.73,54.26-23.18,69.06C777.31,508.43,756.32,515.83,729.81,515.83z M721.75,473.98
		c1.95,2.36,4.64,3.54,8.05,3.54c3.41,0,6.1-1.18,8.05-3.54c1.95-2.36,3.58-7.4,4.88-15.13c1.3-7.73,1.95-18.51,1.95-32.33
		c0-13.83-0.65-24.48-1.95-31.97c-1.3-7.48-2.93-12.36-4.88-14.64c-1.95-2.27-4.64-3.41-8.05-3.41c-3.42,0-6.1,1.14-8.05,3.41
		c-1.95,2.28-3.58,7.16-4.88,14.64c-1.3,7.49-1.95,18.14-1.95,31.97c0,13.83,0.65,24.61,1.95,32.33
		C718.17,466.58,719.8,471.62,721.75,473.98z"/>
	<path d="M881.46,498c-10.01,1.3-19.97,1.95-29.89,1.95c-9.93,0-16.27-0.57-19.04-1.71c-2.77-1.14-4.15-2.93-4.15-5.37
		V343.03c0-4.06,4.67-7.81,14.03-11.23c9.35-3.42,19.97-5.12,31.85-5.12c4.23,0,7.4,0.16,9.52,0.49c5.53,0.82,9.43,4.31,11.71,10.49
		l23.43,62.96h0.98v-57.59c0-4.06,4.64-7.81,13.91-11.23c9.27-3.42,19.85-5.12,31.72-5.12c10.25,0,16.76,1.95,19.52,5.86
		c1.95,2.77,2.93,5.29,2.93,7.56v152.77c0,2.12-5,3.82-15.01,5.13c-10.01,1.3-20.99,1.95-32.94,1.95s-18.51-1.54-19.65-4.64
		l-22.69-60.03h-1.22v57.59C896.46,494.99,891.46,496.69,881.46,498z"/>
</g>
</svg>
