<?xml version="1.0" encoding="utf-8"?>
<!-- Generator: Adobe Illustrator 24.1.2, SVG Export Plug-In . SVG Version: 6.00 Build 0)  -->
<svg version="1.1" id="Calque_1" xmlns="http://www.w3.org/2000/svg" xmlns:xlink="http://www.w3.org/1999/xlink" x="0px" y="0px"
	 viewBox="0 0 595.28 841.89" style="enable-background:new 0 0 595.28 841.89;" xml:space="preserve">
<style type="text/css">
	.st0{fill:#EE740A;}
</style>
<g>
	<path class="st0" d="M-421.6,506.39c-3.84,0.19-9.4,0.48-16.69,0.84c-7.29,0.37-12.27,0.08-14.93-0.86
		c-2.67-0.94-4.05-2.56-4.17-4.87l-7.34-145.25c-0.18-3.53,4.4-6.57,13.73-9.12c9.33-2.55,19.37-4.09,30.11-4.64
		c10.74-0.54,18.48,0.45,23.23,2.98c4.74,2.53,7.57,5.31,8.5,8.34l18.72,59.98l2.07-0.1l11.8-58.75c0.86-4.2,5.71-8.1,14.52-11.7
		c8.82-3.6,18.6-5.67,29.34-6.21c10.74-0.54,18.72-0.1,23.95,1.33c5.23,1.43,7.91,3.45,8.04,6.06l7.47,147.78
		c0.1,2-4.19,3.83-12.88,5.5c-8.68,1.67-19.32,2.82-31.9,3.46c-12.58,0.64-18.99-1.27-19.21-5.72c-0.61-12.12-0.4-33.75,0.64-64.88
		l-2.07,0.1l-8.93,60.68c-0.34,2.33-2.14,4.11-5.38,5.35c-3.25,1.24-8.17,2.03-14.77,2.36c-6.6,0.33-10.65,0.08-12.15-0.77
		c-1.51-0.85-2.55-2.56-3.14-5.15l-15.47-59.45l-2.07,0.1c4.36,31.48,6.83,52.96,7.41,64.47
		C-392.96,502.25-402.44,504.96-421.6,506.39z"/>
	<path class="st0" d="M-210.23,490.13c-9.37,1-18.78,1.5-28.23,1.5s-15.48-0.42-18.09-1.27c-2.61-0.84-3.92-2.27-3.92-4.26V342.74
		c0-3.38,4.45-6.72,13.37-10.03c8.91-3.3,18.9-4.96,29.96-4.96c9.83,0,16.28,2.07,19.36,6.22c1.07,1.54,1.61,3.08,1.61,4.61V486.1
		C-196.17,487.79-200.86,489.13-210.23,490.13z"/>
	<path class="st0" d="M-79.97,511.41c-6.3,0.51-12.64,0.55-19.02,0.12c-6.39-0.43-12.58-1.11-18.58-2.03
		c-6-0.92-10.61-1.78-13.83-2.58c-3.22-0.81-7.39-2.22-12.52-4.25c-5.13-2.03-9.74-4.44-13.81-7.24c-4.08-2.8-8.27-6.63-12.58-11.49
		c-4.31-4.86-7.71-10.35-10.18-16.48c-5.75-14.25-7.04-31.7-3.87-52.36c2.12-13.82,6.15-25.72,12.11-35.69
		c5.96-9.97,12.45-17.37,19.49-22.2c7.04-4.83,14.77-8.38,23.2-10.67c13.64-3.82,26.92-4.74,39.83-2.76
		c18.53,2.84,31.58,6.39,39.17,10.66c3.44,1.93,6.37,4.55,8.82,7.88c2.44,3.33,3.25,7.73,2.41,13.19
		c-0.84,5.47-3.23,12.18-7.16,20.12c-3.94,7.95-8.41,11.54-13.42,10.77c-1.52-0.23-6.96-2.31-16.3-6.23
		c-9.35-3.92-15.77-6.15-19.26-6.68c-5.32-0.81-10.29,1.46-14.92,6.81c-4.63,5.35-7.78,13.5-9.45,24.43
		c-1.67,10.94-1.35,19.69,0.99,26.27c2.33,6.58,6.16,10.27,11.48,11.08c3.79,0.58,10.91,0.08,21.33-1.51
		c10.42-1.59,16.47-2.26,18.14-2c4.71,0.72,7.73,5.61,9.06,14.68c1.33,9.06,1.59,16.26,0.78,21.57c-0.81,5.32-3.09,9.28-6.83,11.89
		C-68.66,509.33-73.68,510.9-79.97,511.41z"/>
	<path class="st0" d="M41.15,492.68c0.16,1.99-4.38,3.98-13.63,5.95c-9.25,1.98-18.58,3.34-28,4.1s-15.51,0.71-18.28-0.15
		c-2.77-0.85-4.24-2.43-4.43-4.73l-11.88-147.72c-0.32-3.98,4.47-7.22,14.36-9.71c9.89-2.49,22.5-4.35,37.82-5.59
		c15.31-1.23,25.23-1.99,29.76-2.28c4.52-0.28,9.87-0.45,16.03-0.48c6.16-0.03,11.09,0.34,14.77,1.12
		c3.68,0.78,7.78,1.84,12.28,3.17c4.5,1.34,8.08,3.25,10.75,5.73c2.66,2.48,5.3,5.47,7.89,8.96c4.66,6.25,7.49,15.47,8.47,27.64
		c0.98,12.18-0.23,22.6-3.61,31.27c-3.39,8.68-8.28,15.43-14.67,20.26c19.84,26.31,30.07,43.21,30.67,50.71
		c0.6,7.51-14.18,12.47-44.35,14.9c-8.73,0.7-14.81,0.81-18.24,0.31c-3.43-0.49-5.71-2-6.84-4.54L41.29,445.5l-3.92,0.08
		L41.15,492.68z M34.52,410.2l5.97-0.48c8.88-0.71,12.77-7.96,11.66-21.75c-0.57-7.04-2.16-11.93-4.76-14.65
		c-2.61-2.72-5.45-3.96-8.51-3.71l-7.58,0.61L34.52,410.2z"/>
	<path class="st0" d="M210.39,505.7c-12.76,0-23.7-1.19-32.84-3.57c-9.14-2.38-17.56-6.64-25.24-12.79
		c-15.52-12.14-23.28-35.42-23.28-69.84c0-14.44,2.11-27.04,6.34-37.8c4.22-10.75,10.1-19.28,17.63-25.58
		c14.75-12.29,33.88-18.44,57.39-18.44c12.14,0,22.7,1.08,31.69,3.23c8.99,2.15,17.48,6.07,25.47,11.75
		c16.13,11.68,24.2,33.96,24.2,66.84c0,29.5-7.3,51.25-21.9,65.23C255.25,498.71,235.43,505.7,210.39,505.7z M202.78,466.18
		c1.84,2.23,4.38,3.34,7.61,3.34c3.23,0,5.76-1.11,7.61-3.34c1.84-2.23,3.38-6.99,4.61-14.29c1.23-7.3,1.84-17.48,1.84-30.54
		c0-13.06-0.62-23.12-1.84-30.19c-1.23-7.07-2.77-11.68-4.61-13.83c-1.84-2.15-4.38-3.23-7.61-3.23c-3.23,0-5.76,1.08-7.61,3.23
		c-1.84,2.15-3.38,6.76-4.61,13.83c-1.23,7.07-1.84,17.13-1.84,30.19c0,13.06,0.61,23.24,1.84,30.54
		C199.4,459.19,200.94,463.95,202.78,466.18z"/>
	<path class="st0" d="M413.74,499.71c-4.99,2.79-11.71,4.78-20.14,5.98c-8.43,1.19-19.09,0.99-31.98-0.61
		c-12.89-1.6-24.99-4.19-36.31-7.76c-11.32-3.57-19.34-6.97-24.05-10.19c-4.71-3.22-6.91-6.05-6.61-8.49
		c1.06-8.54,3.38-17.27,6.97-26.19c3.58-8.92,7.06-13.17,10.41-12.76c0.61,0.08,6.68,2.92,18.22,8.53
		c11.53,5.61,20.35,8.8,26.45,9.56c6.1,0.76,10.14,0.6,12.14-0.47c1.99-1.07,3.14-2.82,3.44-5.26c0.3-2.44-1.11-4.82-4.22-7.14
		c-3.12-2.32-7.1-4.52-11.95-6.6c-4.85-2.07-10.05-4.85-15.57-8.32c-5.53-3.47-10.6-7.2-15.22-11.18
		c-4.61-3.98-8.22-9.27-10.8-15.86c-2.59-6.59-3.39-13.85-2.4-21.78c4.21-33.85,26.51-48.27,66.92-43.24
		c15.1,1.88,28.01,4.45,38.76,7.72c10.74,3.27,18.21,6.37,22.42,9.29c4.2,2.93,6.16,5.53,5.88,7.82
		c-0.99,7.93-3.92,16.24-8.79,24.92c-4.88,8.68-9.06,12.81-12.57,12.37c-0.61-0.08-2.51-1.01-5.69-2.8
		c-9.51-5.67-17.59-8.92-24.22-9.75c-6.63-0.82-11.21-0.77-13.72,0.15c-2.52,0.93-3.93,2.65-4.24,5.16s1.11,4.78,4.26,6.8
		c3.15,2.02,7.13,3.99,11.93,5.89c4.79,1.91,9.96,4.57,15.5,7.97c5.54,3.4,10.6,7.2,15.19,11.41c4.59,4.21,8.15,9.8,10.69,16.77
		c2.54,6.97,3.27,14.81,2.19,23.5c-1.14,9.15-4.54,17.17-10.19,24.05C422.96,493.42,418.73,496.93,413.74,499.71z"/>
	<path class="st0" d="M571.88,505.94c-6.02,1.92-12.19,3.39-18.5,4.41c-6.32,1.02-12.5,1.76-18.55,2.22
		c-6.05,0.46-10.74,0.66-14.05,0.61c-3.32-0.06-7.71-0.49-13.16-1.31c-5.46-0.82-10.49-2.13-15.09-3.94
		c-4.61-1.81-9.56-4.59-14.85-8.35c-5.3-3.76-9.84-8.34-13.64-13.75c-8.82-12.58-14.02-29.29-15.6-50.13
		c-1.06-13.94,0.18-26.44,3.73-37.5c3.55-11.06,8.21-19.73,13.97-26.03c5.76-6.29,12.49-11.5,20.19-15.64
		c12.43-6.8,25.15-10.7,38.17-11.69c18.69-1.42,32.21-0.91,40.57,1.53c3.78,1.1,7.24,3,10.37,5.68c3.13,2.69,4.91,6.79,5.33,12.31
		c0.42,5.52-0.39,12.59-2.43,21.22c-2.04,8.63-5.59,13.14-10.64,13.52c-1.53,0.12-7.3-0.68-17.29-2.38
		c-9.99-1.7-16.75-2.42-20.27-2.15c-5.36,0.41-9.69,3.74-12.99,10c-3.3,6.26-4.53,14.91-3.69,25.94c0.84,11.03,3.14,19.49,6.9,25.36
		c3.76,5.88,8.32,8.61,13.68,8.2c3.83-0.29,10.64-2.39,20.44-6.29c9.79-3.9,15.53-5.92,17.22-6.05c4.75-0.36,8.8,3.72,12.14,12.25
		c3.34,8.53,5.22,15.48,5.63,20.84c0.41,5.36-0.92,9.74-3.97,13.13C582.43,501.37,577.89,504.02,571.88,505.94z"/>
	<path class="st0" d="M670.08,505.53c-12.73-0.83-23.58-2.73-32.54-5.7c-8.97-2.97-17.09-7.77-24.35-14.41
		c-14.7-13.12-20.92-36.86-18.68-71.2c0.94-14.41,3.87-26.85,8.79-37.31c4.92-10.45,11.34-18.58,19.26-24.38
		c15.52-11.3,35.01-16.19,58.47-14.66c12.11,0.79,22.58,2.55,31.41,5.28c8.83,2.73,17.04,7.2,24.65,13.39
		c15.34,12.7,21.94,35.46,19.8,68.27c-1.92,29.44-10.62,50.66-26.1,63.66C715.31,501.47,695.07,507.16,670.08,505.53z
		 M665.07,465.59c1.69,2.34,4.15,3.62,7.37,3.83c3.22,0.21,5.82-0.73,7.81-2.84c1.99-2.1,3.83-6.76,5.53-13.96
		c1.7-7.2,2.98-17.32,3.83-30.35c0.85-13.03,0.89-23.12,0.13-30.25c-0.77-7.13-2-11.83-3.7-14.1c-1.7-2.26-4.16-3.5-7.38-3.72
		c-3.22-0.21-5.82,0.7-7.8,2.72c-1.98,2.03-3.82,6.53-5.5,13.5c-1.69,6.97-2.96,16.98-3.81,30.01c-0.85,13.03-0.9,23.23-0.15,30.59
		C662.15,458.39,663.37,463.25,665.07,465.59z"/>
	<path class="st0" d="M834.61,492.76c-0.04,2-4.75,3.53-14.14,4.59c-9.39,1.06-18.78,1.51-28.15,1.34
		c-9.37-0.17-15.35-0.81-17.95-1.93c-2.59-1.12-3.87-2.84-3.83-5.14l2.64-148.18c0.13-7.37,22.32-10.67,66.57-9.88
		c26.73,0.48,44.36,2.64,52.9,6.48c10.37,4.49,17.33,10.45,20.89,17.89c4.75,9.62,6.99,21.87,6.72,36.77
		c-0.36,20.43-4.16,35.19-11.39,44.29c-5.19,6.67-10.34,10.96-15.44,12.86c-5.11,1.91-9.32,3.26-12.64,4.04
		c-3.32,0.79-7.44,1.37-12.36,1.74c-6.77,0.49-16,0.64-27.67,0.43l-5.53-0.33L834.61,492.76z M836.15,419.48l5.53,0.1
		c2.92,0.05,5.23-0.33,6.94-1.14c1.7-0.81,3.24-3.09,4.62-6.83c1.37-3.74,2.12-9.03,2.24-15.87c0.12-6.83-0.52-12.07-1.91-15.71
		c-1.4-3.63-2.82-5.81-4.26-6.53c-1.45-0.72-3.17-1.09-5.17-1.13l-7.14-0.13L836.15,419.48z"/>
	<path class="st0" d="M1053.68,504.07l-97.53,6.08c-7.52,0.47-12.61,0.25-15.28-0.66c-2.68-0.91-4.08-2.52-4.23-4.82l-9.08-145.61
		c-0.25-3.99,1.38-6.93,4.88-8.85c3.5-1.91,9.92-3.16,19.28-3.74l92.47-5.77c3.22-0.2,5.16,5.03,5.83,15.69
		c0.66,10.66,0.48,18.83-0.55,24.51c-1.03,5.69-2.7,8.6-5,8.74c-9.97,0.62-26.83,0.67-50.56,0.15l0.96,15.41
		c22.64-2.33,37.41-3.72,44.31-4.15c4.14-0.26,6.51,4.44,7.12,14.11c0.6,9.66,0.25,17.04-1.05,22.12c-1.3,5.09-3.33,7.71-6.09,7.89
		l-41.69,1.68l0.92,14.72c26.56-3.65,44.9-5.8,55.02-6.43c3.22-0.2,5.17,5.07,5.83,15.8c0.67,10.74,0.49,18.91-0.55,24.51
		C1057.65,501.05,1055.98,503.93,1053.68,504.07z"/>
</g>
</svg>
