<?xml version="1.0" encoding="utf-8"?>
<!-- Generator: Adobe Illustrator 24.1.2, SVG Export Plug-In . SVG Version: 6.00 Build 0)  -->
<svg version="1.1" id="Calque_1" xmlns="http://www.w3.org/2000/svg" xmlns:xlink="http://www.w3.org/1999/xlink" x="0px" y="0px"
	 viewBox="0 0 595.28 841.89" style="enable-background:new 0 0 595.28 841.89;" xml:space="preserve">
<style type="text/css">
	.st0{fill:#EE740A;}
</style>
<g>
	<path class="st0" d="M-278.22,514.89c0.13,1.99-4.45,3.9-13.72,5.73c-9.28,1.83-18.59,3.04-27.94,3.64
		c-9.35,0.6-15.37,0.45-18.04-0.46c-2.68-0.9-4.09-2.51-4.23-4.81l-9.47-147.9c-0.47-7.36,21.37-12.45,65.54-15.28
		c26.68-1.71,44.43-1,53.26,2.13c10.7,3.63,18.13,9,22.28,16.13c5.51,9.2,8.75,21.23,9.7,36.1c1.31,20.4-1.28,35.42-7.74,45.07
		c-4.63,7.07-9.41,11.77-14.34,14.08c-4.93,2.32-9.02,4.01-12.26,5.06c-3.25,1.06-7.3,1.97-12.18,2.74
		c-6.71,1.05-15.89,1.94-27.54,2.69l-5.54,0.12L-278.22,514.89z M-282.67,441.74l5.52-0.35c2.91-0.19,5.18-0.75,6.82-1.71
		c1.63-0.95,2.98-3.34,4.04-7.19c1.06-3.84,1.38-9.17,0.94-16c-0.44-6.82-1.5-11.99-3.19-15.5c-1.69-3.51-3.28-5.56-4.78-6.16
		c-1.5-0.6-3.25-0.83-5.24-0.7l-7.13,0.46L-282.67,441.74z"/>
	<path class="st0" d="M-70.14,521.56l-97.69-2.69c-7.53-0.21-12.58-0.88-15.16-2.03c-2.58-1.14-3.84-2.87-3.78-5.18l4.01-145.84
		c0.11-3.99,1.99-6.78,5.65-8.38c3.65-1.59,10.17-2.26,19.54-2l92.62,2.55c3.23,0.09,4.69,5.47,4.4,16.15
		c-0.29,10.68-1.21,18.8-2.75,24.36c-1.54,5.57-3.46,8.32-5.76,8.26c-9.99-0.27-26.78-1.73-50.37-4.38l-0.42,15.44
		c22.76-0.3,37.59-0.35,44.5-0.16c4.15,0.11,6.09,5.01,5.82,14.69c-0.27,9.68-1.27,16.99-3.02,21.94c-1.75,4.95-4.01,7.38-6.77,7.31
		l-41.68-2.07l-0.41,14.74c26.78-1.26,45.24-1.75,55.38-1.48c3.23,0.09,4.69,5.51,4.4,16.26c-0.3,10.75-1.21,18.87-2.74,24.37
		C-65.91,518.91-67.83,521.63-70.14,521.56z M-143.86,309.72c9.37,0.26,19.71,2.81,31.03,7.65c11.32,4.85,16.91,9.69,16.78,14.53
		c-0.13,4.84-1.44,9.07-3.92,12.69c-2.48,3.62-5.18,5.39-8.1,5.31c-8.75-0.24-19.75-1.43-32.99-3.56
		c-13.24-2.13-19.82-4.35-19.76-6.65c0.24-8.6,2.24-15.77,6.01-21.51C-151.05,312.44-147.39,309.62-143.86,309.72z"/>
	<path class="st0" d="M-19.63,530.96c-7.67,0.42-12.83,0.28-15.49-0.43c-2.66-0.7-4.04-2.05-4.14-4.04l-7.8-143.15
		c-0.18-3.37,4.08-6.95,12.8-10.74c8.72-3.78,18.6-5.98,29.65-6.58c9.82-0.53,16.37,1.19,19.67,5.16c1.16,1.48,1.78,2.98,1.86,4.52
		l5.55,101.95c18.65-2.25,32.73-3.63,42.25-4.15c3.22-0.18,5.11,4.84,5.67,15.04c0.56,10.21,0.34,19.02-0.64,26.46
		c-0.98,7.44-2.62,11.22-4.92,11.35L-19.63,530.96z"/>
	<path class="st0" d="M196.68,522.06l-97.66-3.6c-7.53-0.28-12.57-1-15.14-2.17c-2.57-1.17-3.81-2.91-3.73-5.21l5.38-145.8
		c0.15-3.99,2.06-6.76,5.73-8.32c3.67-1.55,10.19-2.16,19.56-1.82l92.59,3.42c3.22,0.12,4.64,5.52,4.25,16.19
		c-0.39,10.67-1.39,18.79-2.97,24.34c-1.59,5.56-3.53,8.29-5.84,8.2c-9.98-0.37-26.76-1.99-50.33-4.86l-0.57,15.43
		c22.76-0.08,37.59,0,44.5,0.26c4.15,0.15,6.04,5.07,5.68,14.74c-0.36,9.67-1.43,16.98-3.23,21.91c-1.8,4.93-4.08,7.35-6.84,7.24
		l-41.65-2.46l-0.54,14.74c26.79-1.01,45.25-1.33,55.39-0.95c3.22,0.12,4.64,5.56,4.24,16.3c-0.4,10.75-1.39,18.86-2.97,24.34
		C200.93,519.45,198.98,522.14,196.68,522.06z"/>
	<path class="st0" d="M320.74,476.31h-93.35c-1.69,0-3.15-1.42-4.38-4.26c-1.23-2.84-1.84-6.91-1.84-12.21
		c0-5.3,1.69-10.68,5.07-16.13c3.38-5.45,6.68-8.18,9.91-8.18h92.65c3.99,0,5.99,5,5.99,14.98c0,5.07-1.61,10.64-4.84,16.71
		C326.73,473.28,323.65,476.31,320.74,476.31z"/>
	<path class="st0" d="M391.96,523.67c-3.83,0.25-9.39,0.62-16.67,1.11c-7.28,0.48-12.26,0.28-14.94-0.63
		c-2.68-0.9-4.09-2.5-4.24-4.8l-9.62-145.11c-0.23-3.53,4.3-6.64,13.59-9.33c9.29-2.69,19.3-4.4,30.04-5.11
		c10.73-0.71,18.49,0.16,23.27,2.61c4.78,2.45,7.66,5.19,8.63,8.21l19.66,59.68l2.07-0.14l10.88-58.93
		c0.8-4.21,5.58-8.18,14.34-11.92c8.76-3.74,18.51-5.96,29.24-6.67c10.73-0.71,18.72-0.39,23.97,0.95c5.25,1.35,7.96,3.32,8.13,5.93
		l9.79,147.64c0.13,1.99-4.13,3.89-12.79,5.7c-8.66,1.81-19.28,3.13-31.84,3.96c-12.57,0.83-19.01-0.97-19.3-5.42
		c-0.8-12.11-0.93-33.74-0.38-64.88l-2.07,0.14l-7.98,60.82c-0.31,2.33-2.07,4.14-5.3,5.43c-3.23,1.29-8.14,2.16-14.73,2.59
		c-6.59,0.44-10.65,0.24-12.17-0.58c-1.52-0.82-2.59-2.52-3.23-5.1l-16.4-59.2l-2.07,0.14c4.85,31.4,7.66,52.85,8.42,64.35
		C420.53,519.09,411.09,521.94,391.96,523.67z"/>
	<path class="st0" d="M666.84,521.59l-97.69-2.73c-7.53-0.21-12.58-0.89-15.16-2.04c-2.58-1.15-3.84-2.87-3.78-5.18l4.07-145.84
		c0.11-3.99,1.99-6.78,5.65-8.37c3.65-1.59,10.17-2.25,19.54-1.99l92.62,2.59c3.23,0.09,4.69,5.47,4.39,16.15
		c-0.3,10.68-1.22,18.8-2.76,24.36c-1.54,5.57-3.46,8.32-5.76,8.26c-9.99-0.28-26.78-1.75-50.37-4.4l-0.43,15.44
		c22.76-0.29,37.59-0.33,44.5-0.14c4.15,0.12,6.09,5.01,5.82,14.69c-0.27,9.68-1.28,16.99-3.03,21.93c-1.75,4.95-4.01,7.38-6.77,7.3
		L616,459.53l-0.41,14.74c26.78-1.25,45.24-1.73,55.38-1.45c3.23,0.09,4.69,5.51,4.39,16.26c-0.3,10.75-1.22,18.87-2.76,24.36
		C671.06,518.94,669.14,521.65,666.84,521.59z M591.42,319.92c11.44-4.98,19.88-7.4,25.33-7.25c5.45,0.15,13.56,2.99,24.32,8.52
		c10.76,5.53,16.11,9.21,16.06,11.06c-0.15,5.38-1.13,10.15-2.94,14.33c-1.81,4.18-4.09,6.23-6.86,6.15
		c-2.15-0.06-12.82-3.36-32-9.89c-19.68,5.45-30.51,8.14-32.51,8.08c-2.76-0.08-4.93-2.25-6.5-6.52c-1.57-4.27-2.28-9.09-2.13-14.47
		C574.24,328.24,579.99,324.9,591.42,319.92z"/>
	<path class="st0" d="M719.56,522.76c-7.66,0.62-12.82,0.61-15.49-0.02c-2.67-0.63-4.09-1.94-4.25-3.93l-11.52-142.9
		c-0.27-3.37,3.9-7.06,12.52-11.07c8.62-4.01,18.44-6.46,29.47-7.35c9.8-0.79,16.4,0.76,19.8,4.65c1.19,1.45,1.86,2.94,1.98,4.47
		l8.21,101.77c18.59-2.73,32.62-4.48,42.12-5.25c3.22-0.26,5.23,4.7,6.06,14.89c0.82,10.19,0.84,19.01,0.05,26.47
		c-0.79,7.46-2.33,11.29-4.62,11.47L719.56,522.76z"/>
	<path class="st0" d="M933.45,522.8l-97.6-5.02c-7.52-0.39-12.56-1.18-15.11-2.39c-2.56-1.21-3.77-2.96-3.65-5.26l7.49-145.7
		c0.2-3.99,2.15-6.73,5.85-8.24c3.69-1.5,10.22-2.01,19.58-1.53l92.53,4.76c3.22,0.17,4.56,5.58,4.01,16.25
		c-0.55,10.67-1.66,18.76-3.33,24.29c-1.67,5.53-3.65,8.24-5.96,8.12c-9.98-0.51-26.73-2.37-50.26-5.58l-0.79,15.42
		c22.76,0.25,37.59,0.55,44.5,0.9c4.14,0.21,5.97,5.15,5.47,14.82c-0.5,9.67-1.68,16.96-3.55,21.86c-1.87,4.91-4.18,7.29-6.94,7.14
		l-41.61-3.06l-0.76,14.73c26.8-0.62,45.27-0.67,55.4-0.15c3.22,0.17,4.56,5.62,4.01,16.36c-0.55,10.74-1.66,18.84-3.33,24.29
		C937.74,520.25,935.76,522.91,933.45,522.8z"/>
</g>
</svg>
