<?xml version="1.0" encoding="utf-8"?>
<!-- Generator: Adobe Illustrator 24.1.2, SVG Export Plug-In . SVG Version: 6.00 Build 0)  -->
<svg version="1.1" class="st0" id="Calque_1" xmlns="http://www.w3.org/2000/svg" xmlns:xlink="http://www.w3.org/1999/xlink" x="0px" y="0px"
	 viewBox="0 0 595.28 841.89" style="enable-background:new 0 0 595.28 841.89;" xml:space="preserve">
<g>
	<path class="st0" d="M-216.13,498.02c-9.43,1-18.86,1.5-28.29,1.5c-9.43,0-15.41-0.42-17.94-1.26c-2.53-0.84-3.8-2.26-3.8-4.25
		v-98.9h-31.97c-1.69,0-3.14-2.15-4.37-6.44c-1.23-4.29-1.84-10.69-1.84-19.21c0-8.51,0.92-16.17,2.76-23
		c1.84-6.82,4.29-10.23,7.36-10.23h124.43c2.3,0,3.87,2.15,4.72,6.44c0.84,4.29,1.26,10.5,1.26,18.63c0,8.13-0.84,15.79-2.53,23
		c-1.69,7.21-3.99,10.81-6.9,10.81h-28.75v98.9C-201.99,495.68-206.7,497.02-216.13,498.02z"/>
	<path class="st0" d="M-65.13,504.55c-12.57,2-23.55,2.53-32.93,1.62c-9.38-0.92-18.34-3.8-26.87-8.66
		c-17.2-9.53-28.48-31.26-33.87-65.19c-2.26-14.23-2.15-26.98,0.33-38.24c2.48-11.26,6.94-20.58,13.37-27.97
		c12.62-14.42,30.51-23.47,53.68-27.15c11.96-1.9,22.54-2.49,31.74-1.78c9.2,0.72,18.17,3.25,26.94,7.6
		c17.73,8.99,29.16,29.68,34.31,62.09c4.62,29.08,0.82,51.65-11.38,67.71C-22.01,490.64-40.45,500.63-65.13,504.55z M-78.81,466.78
		c2.17,1.91,4.84,2.61,8.02,2.1c3.18-0.5,5.5-2,6.97-4.48c1.47-2.48,2.24-7.42,2.31-14.8c0.07-7.38-0.92-17.51-2.96-30.39
		c-2.04-12.87-4.22-22.69-6.54-29.47c-2.32-6.77-4.55-11.07-6.71-12.91c-2.15-1.83-4.82-2.49-8-1.99c-3.18,0.5-5.51,1.96-6.99,4.37
		c-1.48,2.41-2.27,7.19-2.38,14.35c-0.11,7.16,0.86,17.18,2.91,30.05c2.04,12.87,4.24,22.81,6.59,29.81
		C-83.24,460.42-80.98,464.88-78.81,466.78z"/>
	<path class="st0" d="M140.4,487.11c-13.29,10.19-31.9,14.56-55.86,13.12c-23.96-1.44-42.03-8.01-54.23-19.73
		C18.11,468.78,12.68,451.9,14,429.86l5.06-84.26c0.23-3.82,4.76-7.01,13.59-9.55c8.83-2.54,18.99-3.47,30.47-2.78
		c9.18,0.55,15.05,2.67,17.59,6.36c1.82,2.87,2.68,5.31,2.56,7.3l-4.11,68.42c-1.04,17.3-1.08,28.78-0.11,34.44
		c0.96,5.67,3.59,8.63,7.88,8.88c4.28,0.26,7.17-2.3,8.64-7.66c1.47-5.36,2.74-16.92,3.81-34.68l3.94-65.66
		c0.23-3.82,4.76-7.01,13.59-9.55c8.83-2.54,18.91-3.47,30.24-2.79c9.64,0.58,15.66,2.71,18.05,6.38c1.67,2.87,2.45,5.3,2.33,7.28
		l-5.21,86.78C160.99,460.81,153.69,476.92,140.4,487.11z"/>
	<path class="st0" d="M246.83,499.33c0.09,1.99-4.5,3.82-13.79,5.48c-9.29,1.67-18.64,2.72-28.06,3.16
		c-9.42,0.44-15.5,0.19-18.23-0.76c-2.73-0.94-4.15-2.57-4.26-4.87l-6.94-147.73c-0.19-3.98,4.69-7.05,14.65-9.21
		c9.95-2.15,22.59-3.59,37.9-4.31c15.31-0.72,25.23-1.15,29.76-1.28c4.52-0.13,9.86-0.12,16.01,0.05c6.15,0.17,11.05,0.71,14.7,1.61
		c3.65,0.9,7.7,2.1,12.14,3.57c4.44,1.48,7.95,3.5,10.53,6.07c2.57,2.57,5.1,5.63,7.57,9.2c4.44,6.39,6.95,15.68,7.53,27.85
		c0.57,12.18-0.98,22.54-4.64,31.07c-3.67,8.54-8.77,15.11-15.31,19.71c18.91,26.9,28.55,44.1,28.9,51.6
		c0.35,7.51-14.56,11.97-44.73,13.38c-8.73,0.41-14.8,0.31-18.2-0.3c-3.41-0.61-5.63-2.19-6.67-4.75l-17.16-46.63l-3.92-0.05
		L246.83,499.33z M242.96,416.85l5.97-0.28c8.88-0.42,13-7.52,12.35-21.3c-0.33-7.04-1.75-11.97-4.26-14.77
		c-2.51-2.8-5.3-4.13-8.36-3.98l-7.58,0.36L242.96,416.85z"/>
	<path class="st0" d="M393.66,498.02c-9.35,1-18.74,1.5-28.17,1.5s-15.45-0.42-18.06-1.26c-2.61-0.84-3.91-2.26-3.91-4.25V350.93
		c0-3.37,4.45-6.71,13.34-10c8.89-3.3,18.86-4.95,29.9-4.95c9.81,0,16.25,2.07,19.32,6.21c1.07,1.54,1.61,3.07,1.61,4.6v147.2
		C407.69,495.68,403.01,497.02,393.66,498.02z"/>
	<path class="st0" d="M546.55,486.12c-4.16,3.91-10.17,7.47-18.04,10.67c-7.87,3.2-18.24,5.59-31.1,7.17
		c-12.86,1.57-25.21,2-37.03,1.29c-11.83-0.71-20.41-2.06-25.75-4.03c-5.34-1.97-8.16-4.17-8.46-6.61
		c-1.04-8.52-0.91-17.53,0.4-27.04c1.31-9.5,3.63-14.46,6.98-14.87c0.61-0.07,7.18,1.21,19.7,3.84c12.52,2.64,21.83,3.58,27.92,2.84
		c6.09-0.75,9.97-1.88,11.63-3.39c1.67-1.51,2.35-3.49,2.06-5.93c-0.3-2.43-2.24-4.4-5.82-5.89c-3.58-1.49-7.97-2.65-13.17-3.49
		c-5.2-0.83-10.9-2.26-17.09-4.28c-6.2-2.02-12.01-4.4-17.44-7.13c-5.43-2.73-10.2-6.98-14.3-12.73c-4.1-5.75-6.64-12.59-7.61-20.5
		c-4.14-33.79,13.96-53.15,54.29-58.09c15.07-1.84,28.2-2.49,39.39-1.93c11.19,0.56,19.18,1.75,23.95,3.55
		c4.78,1.81,7.31,3.86,7.59,6.14c0.97,7.91,0.15,16.67-2.46,26.25c-2.61,9.59-5.67,14.6-9.17,15.03c-0.61,0.07-2.67-0.37-6.19-1.33
		c-10.59-3.18-19.19-4.37-25.81-3.56c-6.62,0.81-11.04,1.97-13.25,3.48c-2.21,1.51-3.16,3.52-2.85,6.03
		c0.31,2.51,2.23,4.36,5.78,5.55c3.54,1.19,7.87,2.13,12.97,2.81c5.1,0.69,10.75,2.01,16.94,3.95c6.18,1.95,12.01,4.4,17.47,7.36
		c5.46,2.96,10.26,7.51,14.41,13.64c4.15,6.14,6.76,13.54,7.82,22.21c1.12,9.13-0.23,17.72-4.03,25.75
		C553.95,477.79,550.7,482.21,546.55,486.12z"/>
	<path class="st0" d="M606.82,499.51c-3.83,0-9.39,0-16.68,0c-7.28,0-12.23-0.54-14.83-1.61c-2.61-1.07-3.91-2.76-3.91-5.06V347.71
		c0-3.53,4.71-6.33,14.15-8.4c9.43-2.07,19.51-3.1,30.24-3.1c10.73,0,18.4,1.38,23,4.14c4.6,2.76,7.28,5.67,8.05,8.74l15.64,60.72
		h2.07l14.72-57.96c1.07-4.14,6.1-7.78,15.06-10.92c8.97-3.14,18.82-4.71,29.56-4.71c10.73,0,18.67,0.84,23.81,2.53
		c5.14,1.69,7.71,3.83,7.71,6.44v147.66c0,1.99-4.37,3.6-13.11,4.83c-8.74,1.23-19.4,1.84-31.97,1.84
		c-12.57,0-18.86-2.22-18.86-6.67c0-12.11,1.3-33.66,3.91-64.63h-2.07l-11.96,60.03c-0.46,2.3-2.34,3.99-5.64,5.06
		c-3.3,1.07-8.24,1.61-14.83,1.61c-6.59,0-10.62-0.46-12.07-1.38c-1.46-0.92-2.42-2.68-2.88-5.29l-12.42-60.03h-2.07
		c2.76,31.59,4.14,53.13,4.14,64.63C635.57,496.83,625.98,499.05,606.82,499.51z"/>
	<path class="st0" d="M893.39,498.28l-97.26,7.18c-7.49,0.55-12.58,0.39-15.26-0.49c-2.68-0.88-4.1-2.46-4.27-4.76l-10.73-145.19
		c-0.29-3.97,1.29-6.94,4.76-8.88c3.47-1.95,9.87-3.27,19.2-3.96l92.21-6.81c3.21-0.24,5.21,4.96,5.99,15.59
		c0.79,10.63,0.7,18.78-0.27,24.47c-0.96,5.69-2.59,8.61-4.89,8.78c-9.94,0.73-26.76,0.98-50.45,0.73l1.14,15.37
		c22.56-2.59,37.29-4.14,44.17-4.65c4.13-0.31,6.55,4.36,7.26,13.99c0.71,9.63,0.45,17-0.79,22.08c-1.24,5.09-3.23,7.73-5.99,7.94
		l-41.58,2.15l1.08,14.68c26.46-3.95,44.74-6.3,54.83-7.05c3.21-0.24,5.21,5,6,15.7c0.79,10.71,0.7,18.86-0.27,24.47
		C897.31,495.22,895.68,498.11,893.39,498.28z"/>
</g>
</svg>
