<?xml version="1.0" encoding="utf-8"?>
<!-- Generator: Adobe Illustrator 24.1.2, SVG Export Plug-In . SVG Version: 6.00 Build 0)  -->
<svg version="1.1" class="st0" id="Calque_1" xmlns="http://www.w3.org/2000/svg" xmlns:xlink="http://www.w3.org/1999/xlink" x="0px" y="0px"
	 viewBox="0 0 595.28 841.89" style="enable-background:new 0 0 595.28 841.89;" xml:space="preserve">
<g>
	<path class="st0" d="M-140.15,393.72c-0.24,2.75-4.86,8.75-13.85,17.98c-8.99,9.23-22.35,21.63-40.07,37.18l48.44,4.28
		c1.68,0.15,2.9,2.53,3.65,7.15c0.75,4.62,0.76,11.02,0.04,19.21c-0.72,8.19-2.32,15.34-4.79,21.44c-2.47,6.11-5.31,9.02-8.52,8.73
		l-111.81-9.87c-4.44-0.39-7.22-5.11-8.35-14.16c-1.13-9.04-1.23-18.77-0.32-29.18c0.2-2.3,5.04-8.19,14.52-17.69
		c9.48-9.5,23.67-22.67,42.59-39.51l-44.54-3.93c-4.13-0.36-5.61-7.2-4.44-20.52c0.82-9.33,2.6-18.09,5.33-26.25
		c2.72-8.17,5.62-12.11,8.68-11.84l105.84,9.34C-139.94,346.77-137.41,362.65-140.15,393.72z"/>
	<path class="st0" d="M-52.5,504.07c-12.76,0-23.7-1.19-32.84-3.57c-9.14-2.38-17.56-6.64-25.24-12.79
		c-15.52-12.14-23.28-35.42-23.28-69.84c0-14.44,2.11-27.04,6.34-37.8c4.22-10.75,10.1-19.28,17.63-25.58
		c14.75-12.29,33.88-18.44,57.39-18.44c12.14,0,22.7,1.08,31.69,3.23c8.99,2.15,17.48,6.07,25.47,11.75
		c16.13,11.68,24.2,33.96,24.2,66.84c0,29.5-7.3,51.25-21.9,65.23C-7.63,497.08-27.46,504.07-52.5,504.07z M-60.1,464.54
		c1.84,2.23,4.38,3.34,7.61,3.34c3.23,0,5.76-1.11,7.61-3.34c1.84-2.23,3.38-6.99,4.61-14.29c1.23-7.3,1.84-17.48,1.84-30.54
		c0-13.06-0.62-23.12-1.84-30.19c-1.23-7.07-2.77-11.68-4.61-13.83c-1.84-2.15-4.38-3.23-7.61-3.23c-3.23,0-5.76,1.08-7.61,3.23
		c-1.84,2.15-3.38,6.76-4.61,13.83c-1.23,7.07-1.84,17.13-1.84,30.19c0,13.06,0.61,23.24,1.84,30.54
		C-63.49,457.55-61.95,462.32-60.1,464.54z"/>
	<path class="st0" d="M118.74,504.07c-12.76,0-23.7-1.19-32.84-3.57c-9.14-2.38-17.56-6.64-25.24-12.79
		c-15.52-12.14-20.28-35.42-20.28-69.84c0-14.44-0.89-27.04,3.34-37.8c4.22-10.75,10.1-19.28,17.63-25.58
		c14.75-12.29,33.88-18.44,57.39-18.44c12.14,0,22.7,1.08,31.69,3.23c8.99,2.15,17.48,6.07,25.47,11.75
		c16.13,11.68,24.2,33.96,24.2,66.84c0,29.5-7.3,51.25-21.9,65.23C163.61,497.08,143.79,504.07,118.74,504.07z M111.14,464.54
		c1.84,2.23,4.38,3.34,7.61,3.34c3.23,0,5.76-1.11,7.61-3.34c1.84-2.23,3.38-6.99,4.61-14.29c1.23-7.3,1.84-17.48,1.84-30.54
		c0-13.06-0.62-23.12-1.84-30.19c-1.23-7.07-2.77-11.68-4.61-13.83c-1.84-2.15-4.38-3.23-7.61-3.23c-3.23,0-5.76,1.08-7.61,3.23
		c-1.84,2.15-3.38,6.76-4.61,13.83c-1.23,7.07-1.84,17.13-1.84,30.19c0,13.06,0.61,23.24,1.84,30.54
		C107.76,457.55,109.29,462.32,111.14,464.54z"/>
	<path class="st0" d="M249.24,498.32c-7.55,1.42-12.69,1.96-15.41,1.61c-2.73-0.34-4.27-1.5-4.64-3.46l-26.53-140.88
		c-0.63-3.32,3.13-7.43,11.28-12.33c8.14-4.89,17.66-8.37,28.53-10.41c9.66-1.82,16.39-0.98,20.18,2.53
		c1.34,1.31,2.15,2.72,2.44,4.23l18.9,100.34c18.19-4.68,31.97-7.9,41.33-9.66c3.17-0.6,5.7,4.13,7.59,14.17
		c1.89,10.04,2.84,18.81,2.85,26.32c0.01,7.5-1.12,11.47-3.39,11.9L249.24,498.32z"/>
	<path class="st0" d="M417.76,503.94c-12.74-0.7-23.6-2.49-32.6-5.37c-9-2.88-17.17-7.6-24.5-14.16
		c-14.83-12.97-21.3-36.64-19.41-71.01c0.79-14.42,3.59-26.89,8.4-37.39c4.81-10.51,11.14-18.7,19.01-24.58
		c15.4-11.46,34.84-16.55,58.31-15.26c12.12,0.67,22.61,2.32,31.47,4.96c8.86,2.64,17.12,7.02,24.79,13.13
		c15.47,12.55,22.3,35.24,20.5,68.07c-1.62,29.46-10.1,50.77-25.44,63.93C462.94,499.42,442.77,505.32,417.76,503.94z
		 M412.33,464.06c1.72,2.33,4.19,3.58,7.41,3.75c3.22,0.18,5.81-0.79,7.78-2.92c1.96-2.12,3.76-6.79,5.39-14.02
		c1.63-7.22,2.8-17.35,3.52-30.39c0.72-13.04,0.65-23.12-0.19-30.25c-0.84-7.12-2.12-11.81-3.84-14.06
		c-1.72-2.25-4.2-3.46-7.42-3.64c-3.22-0.18-5.81,0.76-7.77,2.8c-1.96,2.05-3.75,6.57-5.36,13.56c-1.62,6.99-2.78,17.01-3.5,30.05
		c-0.72,13.04-0.66,23.24,0.17,30.59C409.34,456.89,410.61,461.73,412.33,464.06z"/>
	<path class="st0" d="M569.16,504.85c-5.21,0.34-10.08,0.11-14.59-0.67c-4.52-0.78-9.3-2.75-14.35-5.89
		c-5.05-3.14-9.45-7.43-13.19-12.89c-8.5-12.39-13.58-31.53-15.26-57.45c-0.92-14.26,0.18-26.96,3.31-38.09
		c3.13-11.13,7.41-19.92,12.85-26.35c5.43-6.43,12.09-11.83,19.97-16.19c7.88-4.36,15.31-7.34,22.29-8.94
		c6.98-1.61,14.45-2.67,22.43-3.18c18.4-1.19,31.46-0.45,39.17,2.21c7.71,2.66,11.86,8.44,12.44,17.33
		c0.46,7.05-0.36,14.77-2.43,23.14c-2.08,8.37-5.65,12.72-10.71,13.05c-1.23,0.08-6.52-0.77-15.87-2.56
		c-9.35-1.78-16.33-2.53-20.93-2.23c-13.19,0.85-19.06,12.4-17.63,34.63c0.72,11.19,2.79,19.42,6.21,24.66
		c3.42,5.25,7.45,8.03,12.09,8.34l-1.34-20.7c-0.25-3.83,3.43-7.61,11.05-11.34c7.61-3.72,15.02-5.82,22.23-6.29
		c7.21-0.47,12.49-0.34,15.84,0.36c3.35,0.71,5.7,1.87,7.04,3.47c2.32,2.62,3.56,5.01,3.7,7.15l4.11,63.71
		c0.13,1.99-3.79,3.86-11.76,5.61c-7.97,1.75-16.29,2.9-24.95,3.46c-8.66,0.56-14.17,0.49-16.53-0.2c-2.35-0.69-3.81-2.95-4.36-6.76
		l-2.49-13.47l-1.84,0.12c-0.65,6.66-3,12.51-7.07,17.55C584.54,501.47,578.06,504.28,569.16,504.85z"/>
	<path class="st0" d="M716.3,500.5c-9.37,1-18.78,1.5-28.23,1.5s-15.48-0.42-18.09-1.27c-2.61-0.84-3.92-2.27-3.92-4.26V353.1
		c0-3.38,4.45-6.72,13.37-10.03c8.91-3.3,18.9-4.96,29.96-4.96c9.83,0,16.28,2.07,19.36,6.22c1.07,1.54,1.61,3.08,1.61,4.61v147.51
		C730.35,498.16,725.67,499.5,716.3,500.5z"/>
	<path class="st0" d="M860.94,498.74l-97.67-3.19c-7.53-0.25-12.58-0.95-15.15-2.11c-2.58-1.16-3.83-2.89-3.75-5.2l4.77-145.82
		c0.13-3.99,2.03-6.77,5.69-8.35c3.66-1.57,10.18-2.2,19.55-1.9l92.6,3.03c3.22,0.11,4.66,5.5,4.31,16.17
		c-0.35,10.68-1.31,18.79-2.87,24.35c-1.57,5.56-3.5,8.3-5.8,8.23c-9.98-0.33-26.77-1.87-50.35-4.64l-0.5,15.43
		c22.76-0.18,37.59-0.15,44.5,0.07c4.15,0.14,6.06,5.04,5.75,14.72c-0.32,9.68-1.36,16.98-3.14,21.92
		c-1.78,4.94-4.05,7.36-6.81,7.27l-41.66-2.28l-0.48,14.74c26.79-1.12,45.25-1.52,55.38-1.19c3.22,0.11,4.66,5.54,4.31,16.28
		c-0.35,10.75-1.31,18.87-2.87,24.35C865.18,496.11,863.25,498.81,860.94,498.74z"/>
</g>
</svg>
